# xmcd CD database file
#
# Track frame offsets:
#	150
#	18819
#	38223
#	49945
#	69026
#	87202
#	107288
#	130715
#	152870
#	177383
#	202450
#	225761
#
# Disc length: 3487 seconds
#
# Revision: 0
# Processed by: cddbd v1.4PL0 Copyright (c) Steve Scherf et al.
# Submitted via: CDex 1.50Beta6
#
DISCID=8e0d9d0c
DTITLE=Fried Pride - Street Walking Woman
DYEAR=1900
DGENRE=Jazz
TTITLE0=Street Walking Woman
TTITLE1=Close To You
TTITLE2=It Don't Mean A Thing
TTITLE3=Everything Happens To Me
TTITLE4=Norwegian Wood
TTITLE5=If I Were A Bell
TTITLE6=My Funny Valentine
TTITLE7=Almaz
TTITLE8=Moon River
TTITLE9=Superstition
TTITLE10=What's Going On
TTITLE11=Burnin' Up The Carnival
EXTD=
EXTT0=
EXTT1=
EXTT2=
EXTT3=
EXTT4=
EXTT5=
EXTT6=
EXTT7=
EXTT8=
EXTT9=
EXTT10=
EXTT11=
PLAYORDER=
